Motion_pl07
version=1
nRows=5
nColumns=43
inDegrees=yes
endheader
time	pelvis_tilt	pelvis_list	pelvis_rotation	pelvis_tx	pelvis_ty	pelvis_tz	hip_flexion_r	hip_adduction_r	hip_rotation_r	knee_angle_r	ankle_angle_r	subtalar_angle_r	mtp_angle_r	hip_flexion_l	hip_adduction_l	hip_rotation_l	knee_angle_l	ankle_angle_l	subtalar_angle_l	mtp_angle_l	lumbar_extension	lumbar_bending	lumbar_rotation	neck_flexion	neck_lateral_bending	neck_rotation	arm_flex_r	arm_add_r	arm_rot_r	elbow_flex_r	pro_sup_r	wrist_flex_r	wrist_dev_r	hand_finger_flex_r	arm_flex_l	arm_add_l	arm_rot_l	elbow_flex_l	pro_sup_l	wrist_flex_l	wrist_dev_l	hand_finger_flex_l
      3.58750000	     -2.77781505	    -60.24940623	     92.10259515	      0.01357819	      0.66915303	      0.48214703	    112.57865133	     -4.49394747	      0.22203036	    -73.59757612	      3.41169685	     -5.93023767	      8.77495220	    109.34154329	     -5.20102693	     -4.92718403	    -70.12413279	      3.84146113	      4.07012704	     16.62428222	    -47.74345627	     -3.54182909	     -5.60154324	     29.30269291	     11.28429790	     -1.21394909	    135.39741755	    -16.94131978	     35.99270513	     50.20470291	    116.18633895	    -14.59891245	    -12.20518282	    -49.17334178	    141.12208728	    -19.99112990	     51.74924651	     46.04428099	    127.67716600	    -26.92923867	     -6.69725525	    -25.04956686
      3.59000000	     -2.77004933	    -60.24788482	     92.09659351	      0.01347226	      0.66933071	      0.48198550	    112.56154169	     -4.47815358	      0.22418643	    -73.59513321	      3.40997017	     -5.93058970	      8.77261855	    109.32362974	     -5.18221648	     -4.92326671	    -70.12612553	      3.83742839	      4.07008617	     16.62345864	    -47.71810258	     -3.53516263	     -5.60199670	     29.30845856	     11.28360282	     -1.21377906	    135.38851981	    -16.97423582	     35.98898260	     50.18753540	    116.18528919	    -14.59643447	    -12.19551242	    -49.17511043	    141.12212259	    -20.01442784	     51.74538572	     46.03389917	    127.67885730	    -26.93013260	     -6.69365466	    -25.05080211
      3.59250000	     -2.75776456	    -60.21410852	     92.11110972	      0.01348371	      0.66944393	      0.48190823	    112.50813844	     -4.45178029	      0.26974726	    -73.55058365	      3.40133149	     -5.93495757	      8.76101183	    109.28599735	     -5.15379323	     -4.87056766	    -70.09954455	      3.82350077	      4.06025702	     16.61899144	    -47.68507836	     -3.54138869	     -5.60399617	     29.34132282	     11.27765136	     -1.21069465	    135.31937863	    -17.03098339	     36.01948047	     50.13850274	    116.18684172	    -14.57212677	    -12.15902469	    -49.17941412	    141.05790562	    -20.03359743	     51.77692536	     46.02664045	    127.69644280	    -26.92628821	     -6.69395316	    -25.05400281
      3.59500000	     -2.74720749	    -60.21214531	     92.10291712	      0.01334973	      0.66961906	      0.48174862	    112.48787491	     -4.43917466	      0.27449350	    -73.55166305	      3.39927371	     -5.93584533	      8.75881455	    109.26701994	     -5.13731027	     -4.86739950	    -70.10254025	      3.82023596	      4.05819804	     16.61812312	    -47.65735375	     -3.53455227	     -5.60472218	     29.34552896	     11.27710734	     -1.21020788	    135.31235304	    -17.05686720	     36.01864117	     50.12381575	    116.18638606	    -14.56865931	    -12.14979790	    -49.18059853	    141.05983463	    -20.04843435	     51.77523939	     46.02116245	    127.69902529	    -26.92696456	     -6.69225675	    -25.05502361
      3.59750000	     -2.73754852	    -60.18930604	     92.11176695	      0.01329781	      0.66977224	      0.48164523	    112.45367909	     -4.41869593	      0.30162195	    -73.53450238	      3.39325729	     -5.93840109	      8.75254952	    109.24102389	     -5.11566869	     -4.84295624	    -70.09120790	      3.81408039	      4.04794034	     16.61554217	    -47.63364730	     -3.53921180	     -5.60300799	     29.36251855	     11.27488436	     -1.20759972	    135.26512244	    -17.11508141	     36.03182740	     50.07517278	    116.18650856	    -14.55307244	    -12.12265400	    -49.18189040	    141.03162970	    -20.08092622	     51.78743248	     46.00790377	    127.70891929	    -26.92482133	     -6.69109284	    -25.05641136
